<mxfile modified="2024-03-11T14:14:27.839Z" host="app.diagrams.net" agent="Mozilla/5.0 (Windows NT 10.0; Win64; x64; rv:122.0) Gecko/20100101 Firefox/122.0" etag="aqxx9jXAzqrx-XQJti7B" version="24.0.4" type="github">
  <diagram id="Ht1M8jgEwFfnCIfOTk4-" name="Page-1">
    <mxGraphModel dx="2345" dy="1029" grid="1" gridSize="10" guides="1" tooltips="1" connect="1" arrows="1" fold="1" page="1" pageScale="1" pageWidth="1169" pageHeight="827" math="0" shadow="0">
      <root>
        <mxCell id="0" />
        <mxCell id="1" parent="0" />
        <mxCell id="WqzEthpVbEl864bcy6q5-30" value="Private subnet" style="points=[[0,0],[0.25,0],[0.5,0],[0.75,0],[1,0],[1,0.25],[1,0.5],[1,0.75],[1,1],[0.75,1],[0.5,1],[0.25,1],[0,1],[0,0.75],[0,0.5],[0,0.25]];outlineConnect=0;gradientColor=none;html=1;whiteSpace=wrap;fontSize=12;fontStyle=0;container=1;pointerEvents=0;collapsible=0;recursiveResize=0;shape=mxgraph.aws4.group;grIcon=mxgraph.aws4.group_security_group;grStroke=0;strokeColor=#00A4A6;fillColor=#E6F6F7;verticalAlign=top;align=left;spacingLeft=30;fontColor=#147EBA;dashed=0;" parent="1" vertex="1">
          <mxGeometry x="410" y="2100" width="849" height="300" as="geometry" />
        </mxCell>
        <mxCell id="yZNJpXMUigSXoDdHdBbW-16" value="" style="sketch=0;points=[[0,0,0],[0.25,0,0],[0.5,0,0],[0.75,0,0],[1,0,0],[0,1,0],[0.25,1,0],[0.5,1,0],[0.75,1,0],[1,1,0],[0,0.25,0],[0,0.5,0],[0,0.75,0],[1,0.25,0],[1,0.5,0],[1,0.75,0]];outlineConnect=0;fontColor=#232F3E;fillColor=#ED7100;strokeColor=#000000;dashed=0;verticalLabelPosition=bottom;verticalAlign=top;align=center;html=1;fontSize=12;fontStyle=0;aspect=fixed;shape=mxgraph.aws4.resourceIcon;resIcon=mxgraph.aws4.ec2;" parent="WqzEthpVbEl864bcy6q5-30" vertex="1">
          <mxGeometry x="61" y="190" width="78" height="78" as="geometry" />
        </mxCell>
        <mxCell id="yZNJpXMUigSXoDdHdBbW-14" value="" style="sketch=0;points=[[0,0,0],[0.25,0,0],[0.5,0,0],[0.75,0,0],[1,0,0],[0,1,0],[0.25,1,0],[0.5,1,0],[0.75,1,0],[1,1,0],[0,0.25,0],[0,0.5,0],[0,0.75,0],[1,0.25,0],[1,0.5,0],[1,0.75,0]];outlineConnect=0;fontColor=#232F3E;fillColor=#ED7100;strokeColor=#000000;dashed=0;verticalLabelPosition=bottom;verticalAlign=top;align=center;html=1;fontSize=12;fontStyle=0;aspect=fixed;shape=mxgraph.aws4.resourceIcon;resIcon=mxgraph.aws4.ec2;" parent="WqzEthpVbEl864bcy6q5-30" vertex="1">
          <mxGeometry x="191" y="190" width="78" height="78" as="geometry" />
        </mxCell>
        <mxCell id="yZNJpXMUigSXoDdHdBbW-15" value="" style="sketch=0;points=[[0,0,0],[0.25,0,0],[0.5,0,0],[0.75,0,0],[1,0,0],[0,1,0],[0.25,1,0],[0.5,1,0],[0.75,1,0],[1,1,0],[0,0.25,0],[0,0.5,0],[0,0.75,0],[1,0.25,0],[1,0.5,0],[1,0.75,0]];outlineConnect=0;fontColor=#232F3E;fillColor=#ED7100;strokeColor=#000000;dashed=0;verticalLabelPosition=bottom;verticalAlign=top;align=center;html=1;fontSize=12;fontStyle=0;aspect=fixed;shape=mxgraph.aws4.resourceIcon;resIcon=mxgraph.aws4.ec2;" parent="WqzEthpVbEl864bcy6q5-30" vertex="1">
          <mxGeometry x="331" y="70" width="78" height="78" as="geometry" />
        </mxCell>
        <mxCell id="yZNJpXMUigSXoDdHdBbW-17" value="" style="sketch=0;points=[[0,0,0],[0.25,0,0],[0.5,0,0],[0.75,0,0],[1,0,0],[0,1,0],[0.25,1,0],[0.5,1,0],[0.75,1,0],[1,1,0],[0,0.25,0],[0,0.5,0],[0,0.75,0],[1,0.25,0],[1,0.5,0],[1,0.75,0]];outlineConnect=0;fontColor=#232F3E;fillColor=#ED7100;strokeColor=#000000;dashed=0;verticalLabelPosition=bottom;verticalAlign=top;align=center;html=1;fontSize=12;fontStyle=0;aspect=fixed;shape=mxgraph.aws4.resourceIcon;resIcon=mxgraph.aws4.ec2;" parent="WqzEthpVbEl864bcy6q5-30" vertex="1">
          <mxGeometry x="461" y="190" width="78" height="78" as="geometry" />
        </mxCell>
        <mxCell id="yZNJpXMUigSXoDdHdBbW-18" value="" style="sketch=0;points=[[0,0,0],[0.25,0,0],[0.5,0,0],[0.75,0,0],[1,0,0],[0,1,0],[0.25,1,0],[0.5,1,0],[0.75,1,0],[1,1,0],[0,0.25,0],[0,0.5,0],[0,0.75,0],[1,0.25,0],[1,0.5,0],[1,0.75,0]];outlineConnect=0;fontColor=#232F3E;fillColor=#ED7100;strokeColor=#000000;dashed=0;verticalLabelPosition=bottom;verticalAlign=top;align=center;html=1;fontSize=12;fontStyle=0;aspect=fixed;shape=mxgraph.aws4.resourceIcon;resIcon=mxgraph.aws4.ec2;" parent="WqzEthpVbEl864bcy6q5-30" vertex="1">
          <mxGeometry x="601" y="190" width="78" height="78" as="geometry" />
        </mxCell>
        <mxCell id="yZNJpXMUigSXoDdHdBbW-10" value="" style="whiteSpace=wrap;html=1;fillColor=none;&#xa;fontcolor=#000000;strokeColor=#288B22;" parent="1" vertex="1">
          <mxGeometry x="400" y="2020" width="923.5" height="430" as="geometry" />
        </mxCell>
        <mxCell id="SCVMTBWpLvtzJIhz15lM-34" value="" style="whiteSpace=wrap;html=1;fillColor=none;fontSize=14;fontColor=#000000;dashed=0;fontStyle=0;align=center;verticalAlign=top;strokeColor=#CCCCCC;gradientColor=none;spacingLeft=0;labelPosition=center;verticalLabelPosition=bottom;" parent="1" vertex="1">
          <mxGeometry x="882.5" y="257.5" width="210" height="70" as="geometry" />
        </mxCell>
        <mxCell id="-QjtrjUzRDEMRZ5MF8oH-47" value="Capstone Architecture Visualization" style="text;html=1;resizable=0;points=[];autosize=1;align=left;verticalAlign=top;spacingTop=-4;fontSize=30;fontStyle=1" parent="1" vertex="1">
          <mxGeometry x="56.5" y="64.5" width="500" height="40" as="geometry" />
        </mxCell>
        <mxCell id="SCVMTBWpLvtzJIhz15lM-1" value="" style="line;strokeWidth=2;html=1;fontSize=14;" parent="1" vertex="1">
          <mxGeometry x="55" y="110" width="1060" height="10" as="geometry" />
        </mxCell>
        <mxCell id="yZNJpXMUigSXoDdHdBbW-11" value="" style="outlineConnect=0;fontColor=#232F3E;gradientColor=none;fillColor=#277116;strokeColor=none;dashed=0;verticalLabelPosition=bottom;verticalAlign=top;align=center;html=1;fontSize=12;fontStyle=0;aspect=fixed;pointerEvents=1;shape=mxgraph.aws4.vpc;" parent="1" vertex="1">
          <mxGeometry x="400" y="2020" width="50" height="50" as="geometry" />
        </mxCell>
        <mxCell id="yZNJpXMUigSXoDdHdBbW-19" value="Non Prod VPC" style="text;html=1;align=center;verticalAlign=middle;whiteSpace=wrap;rounded=0;fontColor=#ED7100;fontSize=16;" parent="1" vertex="1">
          <mxGeometry x="480" y="2030" width="110" height="30" as="geometry" />
        </mxCell>
        <mxCell id="BpBYxWsEgWOec-O729RD-2" value="" style="endArrow=classic;html=1;rounded=0;entryX=1.002;entryY=0.179;entryDx=0;entryDy=0;entryPerimeter=0;" parent="1" edge="1">
          <mxGeometry width="50" height="50" relative="1" as="geometry">
            <mxPoint x="3080" y="1240" as="sourcePoint" />
            <mxPoint x="3253.067" y="1061.0859999999998" as="targetPoint" />
          </mxGeometry>
        </mxCell>
        <mxCell id="BpBYxWsEgWOec-O729RD-3" value="" style="endArrow=classic;html=1;rounded=0;" parent="1" edge="1">
          <mxGeometry width="50" height="50" relative="1" as="geometry">
            <mxPoint x="3040" y="1450" as="sourcePoint" />
            <mxPoint x="2620" y="1680" as="targetPoint" />
          </mxGeometry>
        </mxCell>
        <mxCell id="BpBYxWsEgWOec-O729RD-4" value="" style="ellipse;shape=cloud;whiteSpace=wrap;html=1;fillColor=none;" parent="1" vertex="1">
          <mxGeometry x="3330" y="1275" width="230" height="150" as="geometry" />
        </mxCell>
        <mxCell id="BpBYxWsEgWOec-O729RD-5" value="Internet" style="text;html=1;align=center;verticalAlign=middle;whiteSpace=wrap;rounded=0;fontSize=20;" parent="1" vertex="1">
          <mxGeometry x="3395" y="1324" width="100" height="60" as="geometry" />
        </mxCell>
        <mxCell id="BpBYxWsEgWOec-O729RD-6" value="" style="whiteSpace=wrap;html=1;fillColor=none;&#xa;fontcolor=#000000;strokeColor=#288B22;" parent="1" vertex="1">
          <mxGeometry x="3920" y="1160" width="923.5" height="414" as="geometry" />
        </mxCell>
        <mxCell id="BpBYxWsEgWOec-O729RD-7" value="" style="endArrow=classic;startArrow=classic;html=1;rounded=0;entryX=0.152;entryY=0.87;entryDx=0;entryDy=0;entryPerimeter=0;" parent="1" edge="1">
          <mxGeometry width="50" height="50" relative="1" as="geometry">
            <mxPoint x="3559.63" y="1349" as="sourcePoint" />
            <mxPoint x="3920.002" y="1349.18" as="targetPoint" />
          </mxGeometry>
        </mxCell>
        <mxCell id="BpBYxWsEgWOec-O729RD-8" value="" style="outlineConnect=0;fontColor=#232F3E;gradientColor=none;fillColor=#277116;strokeColor=none;dashed=0;verticalLabelPosition=bottom;verticalAlign=top;align=center;html=1;fontSize=12;fontStyle=0;aspect=fixed;pointerEvents=1;shape=mxgraph.aws4.vpc;" parent="1" vertex="1">
          <mxGeometry x="3920" y="1160" width="50" height="50" as="geometry" />
        </mxCell>
        <mxCell id="BpBYxWsEgWOec-O729RD-9" value="" style="sketch=0;points=[[0,0,0],[0.25,0,0],[0.5,0,0],[0.75,0,0],[1,0,0],[0,1,0],[0.25,1,0],[0.5,1,0],[0.75,1,0],[1,1,0],[0,0.25,0],[0,0.5,0],[0,0.75,0],[1,0.25,0],[1,0.5,0],[1,0.75,0]];outlineConnect=0;fontColor=#232F3E;fillColor=#ED7100;strokeColor=#000000;dashed=0;verticalLabelPosition=bottom;verticalAlign=top;align=center;html=1;fontSize=12;fontStyle=0;aspect=fixed;shape=mxgraph.aws4.resourceIcon;resIcon=mxgraph.aws4.ec2;" parent="1" vertex="1">
          <mxGeometry x="4610" y="1437" width="78" height="78" as="geometry" />
        </mxCell>
        <mxCell id="BpBYxWsEgWOec-O729RD-11" value="" style="sketch=0;points=[[0,0,0],[0.25,0,0],[0.5,0,0],[0.75,0,0],[1,0,0],[0,1,0],[0.25,1,0],[0.5,1,0],[0.75,1,0],[1,1,0],[0,0.25,0],[0,0.5,0],[0,0.75,0],[1,0.25,0],[1,0.5,0],[1,0.75,0]];outlineConnect=0;fontColor=#232F3E;fillColor=#8C4FFF;strokeColor=#000000;dashed=0;verticalLabelPosition=bottom;verticalAlign=top;align=center;html=1;fontSize=12;fontStyle=0;aspect=fixed;shape=mxgraph.aws4.resourceIcon;resIcon=mxgraph.aws4.transit_gateway;" parent="1" vertex="1">
          <mxGeometry x="3080" y="1308" width="78" height="78" as="geometry" />
        </mxCell>
        <mxCell id="BpBYxWsEgWOec-O729RD-13" value="" style="endArrow=classic;startArrow=classic;html=1;rounded=0;" parent="1" edge="1">
          <mxGeometry width="50" height="50" relative="1" as="geometry">
            <mxPoint x="3170" y="1344.58" as="sourcePoint" />
            <mxPoint x="3330" y="1344.58" as="targetPoint" />
          </mxGeometry>
        </mxCell>
        <mxCell id="BpBYxWsEgWOec-O729RD-14" value="" style="sketch=0;outlineConnect=0;fontColor=#232F3E;gradientColor=none;fillColor=#8C4FFF;strokeColor=none;dashed=0;verticalLabelPosition=bottom;verticalAlign=top;align=center;html=1;fontSize=12;fontStyle=0;aspect=fixed;pointerEvents=1;shape=mxgraph.aws4.customer_gateway;" parent="1" vertex="1">
          <mxGeometry x="4148" y="1319" width="78" height="78" as="geometry" />
        </mxCell>
        <mxCell id="BpBYxWsEgWOec-O729RD-15" value="On-Prem Network" style="text;html=1;align=center;verticalAlign=middle;whiteSpace=wrap;rounded=0;fontSize=16;" parent="1" vertex="1">
          <mxGeometry x="3980" y="1160" width="140" height="47" as="geometry" />
        </mxCell>
        <mxCell id="BpBYxWsEgWOec-O729RD-16" value="Customer Gateway" style="text;html=1;align=center;verticalAlign=middle;whiteSpace=wrap;rounded=0;fontSize=16;" parent="1" vertex="1">
          <mxGeometry x="4112" y="1407" width="150" height="50" as="geometry" />
        </mxCell>
        <mxCell id="WqzEthpVbEl864bcy6q5-1" value="" style="sketch=0;points=[[0,0,0],[0.25,0,0],[0.5,0,0],[0.75,0,0],[1,0,0],[0,1,0],[0.25,1,0],[0.5,1,0],[0.75,1,0],[1,1,0],[0,0.25,0],[0,0.5,0],[0,0.75,0],[1,0.25,0],[1,0.5,0],[1,0.75,0]];outlineConnect=0;fontColor=#232F3E;fillColor=#ED7100;strokeColor=#000000;dashed=0;verticalLabelPosition=bottom;verticalAlign=top;align=center;html=1;fontSize=12;fontStyle=0;aspect=fixed;shape=mxgraph.aws4.resourceIcon;resIcon=mxgraph.aws4.ec2;" parent="1" vertex="1">
          <mxGeometry x="1360" y="681" width="78" height="78" as="geometry" />
        </mxCell>
        <mxCell id="WqzEthpVbEl864bcy6q5-2" value="&lt;div&gt;Web Tier&lt;/div&gt;&lt;div&gt;Jump Box&lt;br&gt;&lt;/div&gt;" style="text;html=1;align=center;verticalAlign=middle;whiteSpace=wrap;rounded=0;fontSize=16;" parent="1" vertex="1">
          <mxGeometry x="819" y="140" width="160" height="50" as="geometry" />
        </mxCell>
        <mxCell id="WqzEthpVbEl864bcy6q5-3" value="Application Tier" style="text;html=1;align=center;verticalAlign=middle;whiteSpace=wrap;rounded=0;fontSize=16;" parent="1" vertex="1">
          <mxGeometry x="453" y="140" width="132" height="50" as="geometry" />
        </mxCell>
        <mxCell id="WqzEthpVbEl864bcy6q5-4" value="Data Tier" style="text;html=1;align=center;verticalAlign=middle;whiteSpace=wrap;rounded=0;fontSize=16;" parent="1" vertex="1">
          <mxGeometry x="981" y="580" width="110" height="30" as="geometry" />
        </mxCell>
        <mxCell id="WqzEthpVbEl864bcy6q5-6" value="" style="sketch=0;points=[[0,0,0],[0.25,0,0],[0.5,0,0],[0.75,0,0],[1,0,0],[0,1,0],[0.25,1,0],[0.5,1,0],[0.75,1,0],[1,1,0],[0,0.25,0],[0,0.5,0],[0,0.75,0],[1,0.25,0],[1,0.5,0],[1,0.75,0]];outlineConnect=0;fontColor=#232F3E;fillColor=#ED7100;strokeColor=#ffffff;dashed=0;verticalLabelPosition=bottom;verticalAlign=top;align=center;html=1;fontSize=12;fontStyle=0;aspect=fixed;shape=mxgraph.aws4.resourceIcon;resIcon=mxgraph.aws4.elastic_load_balancing;" parent="1" vertex="1">
          <mxGeometry x="1230" y="681" width="78" height="78" as="geometry" />
        </mxCell>
        <mxCell id="WqzEthpVbEl864bcy6q5-7" value="" style="sketch=0;points=[[0,0,0],[0.25,0,0],[0.5,0,0],[0.75,0,0],[1,0,0],[0,1,0],[0.25,1,0],[0.5,1,0],[0.75,1,0],[1,1,0],[0,0.25,0],[0,0.5,0],[0,0.75,0],[1,0.25,0],[1,0.5,0],[1,0.75,0]];outlineConnect=0;fontColor=#232F3E;fillColor=#ED7100;strokeColor=#000000;dashed=0;verticalLabelPosition=bottom;verticalAlign=top;align=center;html=1;fontSize=12;fontStyle=0;aspect=fixed;shape=mxgraph.aws4.resourceIcon;resIcon=mxgraph.aws4.ec2;" parent="1" vertex="1">
          <mxGeometry x="1000" y="659" width="78" height="78" as="geometry" />
        </mxCell>
        <mxCell id="WqzEthpVbEl864bcy6q5-8" value="" style="sketch=0;points=[[0,0,0],[0.25,0,0],[0.5,0,0],[0.75,0,0],[1,0,0],[0,1,0],[0.25,1,0],[0.5,1,0],[0.75,1,0],[1,1,0],[0,0.25,0],[0,0.5,0],[0,0.75,0],[1,0.25,0],[1,0.5,0],[1,0.75,0]];outlineConnect=0;fontColor=#232F3E;fillColor=#ED7100;strokeColor=#000000;dashed=0;verticalLabelPosition=bottom;verticalAlign=top;align=center;html=1;fontSize=12;fontStyle=0;aspect=fixed;shape=mxgraph.aws4.resourceIcon;resIcon=mxgraph.aws4.ec2;" parent="1" vertex="1">
          <mxGeometry x="1000" y="751" width="78" height="78" as="geometry" />
        </mxCell>
        <mxCell id="WqzEthpVbEl864bcy6q5-9" value="" style="sketch=0;points=[[0,0,0],[0.25,0,0],[0.5,0,0],[0.75,0,0],[1,0,0],[0,1,0],[0.25,1,0],[0.5,1,0],[0.75,1,0],[1,1,0],[0,0.25,0],[0,0.5,0],[0,0.75,0],[1,0.25,0],[1,0.5,0],[1,0.75,0]];outlineConnect=0;fontColor=#232F3E;fillColor=#ED7100;strokeColor=#000000;dashed=0;verticalLabelPosition=bottom;verticalAlign=top;align=center;html=1;fontSize=12;fontStyle=0;aspect=fixed;shape=mxgraph.aws4.resourceIcon;resIcon=mxgraph.aws4.ec2;" parent="1" vertex="1">
          <mxGeometry x="999.25" y="841" width="78" height="78" as="geometry" />
        </mxCell>
        <mxCell id="WqzEthpVbEl864bcy6q5-10" value="" style="sketch=0;points=[[0,0,0],[0.25,0,0],[0.5,0,0],[0.75,0,0],[1,0,0],[0,1,0],[0.25,1,0],[0.5,1,0],[0.75,1,0],[1,1,0],[0,0.25,0],[0,0.5,0],[0,0.75,0],[1,0.25,0],[1,0.5,0],[1,0.75,0]];outlineConnect=0;fontColor=#232F3E;fillColor=#ED7100;strokeColor=#000000;dashed=0;verticalLabelPosition=bottom;verticalAlign=top;align=center;html=1;fontSize=12;fontStyle=0;aspect=fixed;shape=mxgraph.aws4.resourceIcon;resIcon=mxgraph.aws4.ec2;" parent="1" vertex="1">
          <mxGeometry x="998.5" y="931" width="78" height="78" as="geometry" />
        </mxCell>
        <mxCell id="WqzEthpVbEl864bcy6q5-16" value="" style="endArrow=classic;startArrow=classic;html=1;rounded=0;fontSize=12;startSize=8;endSize=8;curved=1;" parent="1" edge="1">
          <mxGeometry width="50" height="50" relative="1" as="geometry">
            <mxPoint x="1078" y="680.998219895288" as="sourcePoint" />
            <mxPoint x="1230" y="707.26" as="targetPoint" />
          </mxGeometry>
        </mxCell>
        <mxCell id="WqzEthpVbEl864bcy6q5-17" value="" style="endArrow=classic;startArrow=classic;html=1;rounded=0;fontSize=12;startSize=8;endSize=8;curved=1;exitX=1;exitY=0.5;exitDx=0;exitDy=0;exitPerimeter=0;" parent="1" edge="1">
          <mxGeometry width="50" height="50" relative="1" as="geometry">
            <mxPoint x="1078" y="768.5" as="sourcePoint" />
            <mxPoint x="1230" y="719.5" as="targetPoint" />
            <Array as="points">
              <mxPoint x="1160" y="739.5" />
            </Array>
          </mxGeometry>
        </mxCell>
        <mxCell id="WqzEthpVbEl864bcy6q5-18" value="" style="endArrow=classic;startArrow=classic;html=1;rounded=0;fontSize=12;startSize=8;endSize=8;curved=1;" parent="1" source="WqzEthpVbEl864bcy6q5-9" edge="1">
          <mxGeometry width="50" height="50" relative="1" as="geometry">
            <mxPoint x="1078" y="786" as="sourcePoint" />
            <mxPoint x="1230" y="737" as="targetPoint" />
          </mxGeometry>
        </mxCell>
        <mxCell id="WqzEthpVbEl864bcy6q5-19" value="" style="endArrow=classic;startArrow=classic;html=1;rounded=0;fontSize=12;startSize=8;endSize=8;curved=1;entryX=0;entryY=1;entryDx=0;entryDy=0;entryPerimeter=0;" parent="1" source="WqzEthpVbEl864bcy6q5-10" target="WqzEthpVbEl864bcy6q5-6" edge="1">
          <mxGeometry width="50" height="50" relative="1" as="geometry">
            <mxPoint x="1087" y="861" as="sourcePoint" />
            <mxPoint x="1240" y="747" as="targetPoint" />
          </mxGeometry>
        </mxCell>
        <mxCell id="WqzEthpVbEl864bcy6q5-20" value="" style="endArrow=classic;startArrow=classic;html=1;rounded=0;fontSize=12;startSize=8;endSize=8;curved=1;" parent="1" source="WqzEthpVbEl864bcy6q5-6" edge="1">
          <mxGeometry width="50" height="50" relative="1" as="geometry">
            <mxPoint x="1308" y="768.5" as="sourcePoint" />
            <mxPoint x="1358" y="718.5" as="targetPoint" />
          </mxGeometry>
        </mxCell>
        <mxCell id="WqzEthpVbEl864bcy6q5-21" value="" style="sketch=0;outlineConnect=0;fontColor=#232F3E;gradientColor=none;fillColor=#8C4FFF;strokeColor=none;dashed=0;verticalLabelPosition=bottom;verticalAlign=top;align=center;html=1;fontSize=12;fontStyle=0;aspect=fixed;pointerEvents=1;shape=mxgraph.aws4.route_table;" parent="1" vertex="1">
          <mxGeometry x="1360" y="927" width="78" height="76" as="geometry" />
        </mxCell>
        <mxCell id="WqzEthpVbEl864bcy6q5-22" value="" style="endArrow=classic;startArrow=classic;html=1;rounded=0;fontSize=12;startSize=8;endSize=8;curved=1;" parent="1" target="WqzEthpVbEl864bcy6q5-9" edge="1">
          <mxGeometry width="50" height="50" relative="1" as="geometry">
            <mxPoint x="716.5" y="804.0214820592823" as="sourcePoint" />
            <mxPoint x="998" y="955.97" as="targetPoint" />
          </mxGeometry>
        </mxCell>
        <mxCell id="WqzEthpVbEl864bcy6q5-23" value="" style="endArrow=classic;startArrow=classic;html=1;rounded=0;fontSize=12;startSize=8;endSize=8;curved=1;" parent="1" source="WqzEthpVbEl864bcy6q5-12" edge="1">
          <mxGeometry width="50" height="50" relative="1" as="geometry">
            <mxPoint x="727" y="829" as="sourcePoint" />
            <mxPoint x="1008" y="981" as="targetPoint" />
          </mxGeometry>
        </mxCell>
        <mxCell id="WqzEthpVbEl864bcy6q5-25" value="" style="endArrow=classic;startArrow=classic;html=1;rounded=0;fontSize=12;startSize=8;endSize=8;curved=1;" parent="1" target="WqzEthpVbEl864bcy6q5-8" edge="1">
          <mxGeometry width="50" height="50" relative="1" as="geometry">
            <mxPoint x="715.5" y="788.0014820592824" as="sourcePoint" />
            <mxPoint x="998" y="854.98" as="targetPoint" />
          </mxGeometry>
        </mxCell>
        <mxCell id="WqzEthpVbEl864bcy6q5-26" value="" style="endArrow=classic;startArrow=classic;html=1;rounded=0;fontSize=12;startSize=8;endSize=8;curved=1;" parent="1" target="WqzEthpVbEl864bcy6q5-7" edge="1">
          <mxGeometry width="50" height="50" relative="1" as="geometry">
            <mxPoint x="715.5" y="768.5014820592824" as="sourcePoint" />
            <mxPoint x="1000" y="770.5" as="targetPoint" />
          </mxGeometry>
        </mxCell>
        <mxCell id="WqzEthpVbEl864bcy6q5-27" value="Auto-scaling enabled" style="text;html=1;align=center;verticalAlign=middle;whiteSpace=wrap;rounded=0;fontSize=16;" parent="1" vertex="1">
          <mxGeometry x="982.75" y="1021" width="112.5" height="30" as="geometry" />
        </mxCell>
        <mxCell id="WqzEthpVbEl864bcy6q5-29" value="Security group" style="fillColor=none;strokeColor=#DD3522;verticalAlign=top;fontStyle=0;fontColor=#DD3522;whiteSpace=wrap;html=1;" parent="1" vertex="1">
          <mxGeometry x="1334" y="655" width="130" height="186" as="geometry" />
        </mxCell>
        <mxCell id="WqzEthpVbEl864bcy6q5-32" value="Availability Zone" style="fillColor=none;strokeColor=#147EBA;dashed=1;verticalAlign=top;fontStyle=0;fontColor=#147EBA;whiteSpace=wrap;html=1;" parent="1" vertex="1">
          <mxGeometry x="420" y="2070" width="790.5" height="350" as="geometry" />
        </mxCell>
        <mxCell id="_vopK-eWFFhWHjTZmwqj-2" style="edgeStyle=orthogonalEdgeStyle;rounded=0;orthogonalLoop=1;jettySize=auto;html=1;exitX=0;exitY=0;exitDx=0;exitDy=0;entryX=-0.006;entryY=0.169;entryDx=0;entryDy=0;entryPerimeter=0;" edge="1" parent="1">
          <mxGeometry relative="1" as="geometry">
            <mxPoint x="413.95000000000044" y="2090" as="sourcePoint" />
            <mxPoint x="409.0810000000001" y="2149.15" as="targetPoint" />
            <Array as="points">
              <mxPoint x="414" y="2070" />
              <mxPoint x="1260" y="2070" />
              <mxPoint x="1260" y="2440" />
              <mxPoint x="409" y="2440" />
            </Array>
          </mxGeometry>
        </mxCell>
        <mxCell id="_vopK-eWFFhWHjTZmwqj-11" value="Text" style="text;html=1;align=center;verticalAlign=middle;whiteSpace=wrap;rounded=0;" vertex="1" parent="1">
          <mxGeometry x="1810" y="150" width="60" height="30" as="geometry" />
        </mxCell>
        <mxCell id="_vopK-eWFFhWHjTZmwqj-20" style="edgeStyle=orthogonalEdgeStyle;rounded=0;orthogonalLoop=1;jettySize=auto;html=1;exitX=0;exitY=0;exitDx=0;exitDy=0;" edge="1" parent="1">
          <mxGeometry relative="1" as="geometry">
            <mxPoint x="220" y="235.75000000000023" as="sourcePoint" />
            <mxPoint x="1966.8000000000002" y="1420" as="targetPoint" />
          </mxGeometry>
        </mxCell>
        <mxCell id="yZNJpXMUigSXoDdHdBbW-8" value="" style="whiteSpace=wrap;html=1;fillColor=none;&#xa;fontcolor=#000000;strokeColor=#288B22;" parent="1" vertex="1">
          <mxGeometry x="130" y="1750" width="2323.5" height="1454" as="geometry" />
        </mxCell>
        <mxCell id="yZNJpXMUigSXoDdHdBbW-9" value="" style="outlineConnect=0;fontColor=#232F3E;gradientColor=none;fillColor=#277116;strokeColor=none;dashed=0;verticalLabelPosition=bottom;verticalAlign=top;align=center;html=1;fontSize=12;fontStyle=0;aspect=fixed;pointerEvents=1;shape=mxgraph.aws4.vpc;" parent="1" vertex="1">
          <mxGeometry x="375" y="436.5" width="54" height="54" as="geometry" />
        </mxCell>
        <mxCell id="yZNJpXMUigSXoDdHdBbW-20" value="Prod VPC" style="text;html=1;align=center;verticalAlign=middle;whiteSpace=wrap;rounded=0;fontColor=#ED7100;fontSize=16;" parent="1" vertex="1">
          <mxGeometry x="445" y="448.5" width="80" height="30" as="geometry" />
        </mxCell>
        <mxCell id="WqzEthpVbEl864bcy6q5-12" value="" style="sketch=0;points=[[0,0,0],[0.25,0,0],[0.5,0,0],[0.75,0,0],[1,0,0],[0,1,0],[0.25,1,0],[0.5,1,0],[0.75,1,0],[1,1,0],[0,0.25,0],[0,0.5,0],[0,0.75,0],[1,0.25,0],[1,0.5,0],[1,0.75,0]];outlineConnect=0;fontColor=#232F3E;fillColor=#C925D1;strokeColor=#ffffff;dashed=0;verticalLabelPosition=bottom;verticalAlign=top;align=center;html=1;fontSize=12;fontStyle=0;aspect=fixed;shape=mxgraph.aws4.resourceIcon;resIcon=mxgraph.aws4.rds;" parent="1" vertex="1">
          <mxGeometry x="630" y="750" width="78" height="78" as="geometry" />
        </mxCell>
        <mxCell id="_vopK-eWFFhWHjTZmwqj-29" value="" style="sketch=0;points=[[0,0,0],[0.25,0,0],[0.5,0,0],[0.75,0,0],[1,0,0],[0,1,0],[0.25,1,0],[0.5,1,0],[0.75,1,0],[1,1,0],[0,0.25,0],[0,0.5,0],[0,0.75,0],[1,0.25,0],[1,0.5,0],[1,0.75,0]];outlineConnect=0;fontColor=#232F3E;fillColor=#ED7100;strokeColor=#000000;dashed=0;verticalLabelPosition=bottom;verticalAlign=top;align=center;html=1;fontSize=12;fontStyle=0;aspect=fixed;shape=mxgraph.aws4.resourceIcon;resIcon=mxgraph.aws4.ec2;" vertex="1" parent="1">
          <mxGeometry x="1352" y="1251" width="78" height="78" as="geometry" />
        </mxCell>
        <mxCell id="_vopK-eWFFhWHjTZmwqj-30" value="Data Tier" style="text;html=1;align=center;verticalAlign=middle;whiteSpace=wrap;rounded=0;fontSize=16;" vertex="1" parent="1">
          <mxGeometry x="973" y="1150" width="110" height="30" as="geometry" />
        </mxCell>
        <mxCell id="_vopK-eWFFhWHjTZmwqj-31" value="" style="sketch=0;points=[[0,0,0],[0.25,0,0],[0.5,0,0],[0.75,0,0],[1,0,0],[0,1,0],[0.25,1,0],[0.5,1,0],[0.75,1,0],[1,1,0],[0,0.25,0],[0,0.5,0],[0,0.75,0],[1,0.25,0],[1,0.5,0],[1,0.75,0]];outlineConnect=0;fontColor=#232F3E;fillColor=#ED7100;strokeColor=#ffffff;dashed=0;verticalLabelPosition=bottom;verticalAlign=top;align=center;html=1;fontSize=12;fontStyle=0;aspect=fixed;shape=mxgraph.aws4.resourceIcon;resIcon=mxgraph.aws4.elastic_load_balancing;" vertex="1" parent="1">
          <mxGeometry x="1222" y="1251" width="78" height="78" as="geometry" />
        </mxCell>
        <mxCell id="_vopK-eWFFhWHjTZmwqj-32" value="" style="sketch=0;points=[[0,0,0],[0.25,0,0],[0.5,0,0],[0.75,0,0],[1,0,0],[0,1,0],[0.25,1,0],[0.5,1,0],[0.75,1,0],[1,1,0],[0,0.25,0],[0,0.5,0],[0,0.75,0],[1,0.25,0],[1,0.5,0],[1,0.75,0]];outlineConnect=0;fontColor=#232F3E;fillColor=#ED7100;strokeColor=#000000;dashed=0;verticalLabelPosition=bottom;verticalAlign=top;align=center;html=1;fontSize=12;fontStyle=0;aspect=fixed;shape=mxgraph.aws4.resourceIcon;resIcon=mxgraph.aws4.ec2;" vertex="1" parent="1">
          <mxGeometry x="992" y="1229" width="78" height="78" as="geometry" />
        </mxCell>
        <mxCell id="_vopK-eWFFhWHjTZmwqj-33" value="" style="sketch=0;points=[[0,0,0],[0.25,0,0],[0.5,0,0],[0.75,0,0],[1,0,0],[0,1,0],[0.25,1,0],[0.5,1,0],[0.75,1,0],[1,1,0],[0,0.25,0],[0,0.5,0],[0,0.75,0],[1,0.25,0],[1,0.5,0],[1,0.75,0]];outlineConnect=0;fontColor=#232F3E;fillColor=#ED7100;strokeColor=#000000;dashed=0;verticalLabelPosition=bottom;verticalAlign=top;align=center;html=1;fontSize=12;fontStyle=0;aspect=fixed;shape=mxgraph.aws4.resourceIcon;resIcon=mxgraph.aws4.ec2;" vertex="1" parent="1">
          <mxGeometry x="992" y="1321" width="78" height="78" as="geometry" />
        </mxCell>
        <mxCell id="_vopK-eWFFhWHjTZmwqj-34" value="" style="sketch=0;points=[[0,0,0],[0.25,0,0],[0.5,0,0],[0.75,0,0],[1,0,0],[0,1,0],[0.25,1,0],[0.5,1,0],[0.75,1,0],[1,1,0],[0,0.25,0],[0,0.5,0],[0,0.75,0],[1,0.25,0],[1,0.5,0],[1,0.75,0]];outlineConnect=0;fontColor=#232F3E;fillColor=#ED7100;strokeColor=#000000;dashed=0;verticalLabelPosition=bottom;verticalAlign=top;align=center;html=1;fontSize=12;fontStyle=0;aspect=fixed;shape=mxgraph.aws4.resourceIcon;resIcon=mxgraph.aws4.ec2;" vertex="1" parent="1">
          <mxGeometry x="991.25" y="1411" width="78" height="78" as="geometry" />
        </mxCell>
        <mxCell id="_vopK-eWFFhWHjTZmwqj-35" value="" style="sketch=0;points=[[0,0,0],[0.25,0,0],[0.5,0,0],[0.75,0,0],[1,0,0],[0,1,0],[0.25,1,0],[0.5,1,0],[0.75,1,0],[1,1,0],[0,0.25,0],[0,0.5,0],[0,0.75,0],[1,0.25,0],[1,0.5,0],[1,0.75,0]];outlineConnect=0;fontColor=#232F3E;fillColor=#ED7100;strokeColor=#000000;dashed=0;verticalLabelPosition=bottom;verticalAlign=top;align=center;html=1;fontSize=12;fontStyle=0;aspect=fixed;shape=mxgraph.aws4.resourceIcon;resIcon=mxgraph.aws4.ec2;" vertex="1" parent="1">
          <mxGeometry x="990.5" y="1501" width="78" height="78" as="geometry" />
        </mxCell>
        <mxCell id="_vopK-eWFFhWHjTZmwqj-36" value="" style="endArrow=classic;startArrow=classic;html=1;rounded=0;fontSize=12;startSize=8;endSize=8;curved=1;" edge="1" parent="1">
          <mxGeometry width="50" height="50" relative="1" as="geometry">
            <mxPoint x="1070" y="1250.998219895288" as="sourcePoint" />
            <mxPoint x="1222" y="1277.26" as="targetPoint" />
          </mxGeometry>
        </mxCell>
        <mxCell id="_vopK-eWFFhWHjTZmwqj-37" value="" style="endArrow=classic;startArrow=classic;html=1;rounded=0;fontSize=12;startSize=8;endSize=8;curved=1;exitX=1;exitY=0.5;exitDx=0;exitDy=0;exitPerimeter=0;" edge="1" parent="1">
          <mxGeometry width="50" height="50" relative="1" as="geometry">
            <mxPoint x="1070" y="1338.5" as="sourcePoint" />
            <mxPoint x="1222" y="1289.5" as="targetPoint" />
            <Array as="points">
              <mxPoint x="1152" y="1309.5" />
            </Array>
          </mxGeometry>
        </mxCell>
        <mxCell id="_vopK-eWFFhWHjTZmwqj-38" value="" style="endArrow=classic;startArrow=classic;html=1;rounded=0;fontSize=12;startSize=8;endSize=8;curved=1;" edge="1" source="_vopK-eWFFhWHjTZmwqj-34" parent="1">
          <mxGeometry width="50" height="50" relative="1" as="geometry">
            <mxPoint x="1070" y="1356" as="sourcePoint" />
            <mxPoint x="1222" y="1307" as="targetPoint" />
          </mxGeometry>
        </mxCell>
        <mxCell id="_vopK-eWFFhWHjTZmwqj-39" value="" style="endArrow=classic;startArrow=classic;html=1;rounded=0;fontSize=12;startSize=8;endSize=8;curved=1;entryX=0;entryY=1;entryDx=0;entryDy=0;entryPerimeter=0;" edge="1" source="_vopK-eWFFhWHjTZmwqj-35" target="_vopK-eWFFhWHjTZmwqj-31" parent="1">
          <mxGeometry width="50" height="50" relative="1" as="geometry">
            <mxPoint x="1079" y="1431" as="sourcePoint" />
            <mxPoint x="1232" y="1317" as="targetPoint" />
          </mxGeometry>
        </mxCell>
        <mxCell id="_vopK-eWFFhWHjTZmwqj-40" value="" style="endArrow=classic;startArrow=classic;html=1;rounded=0;fontSize=12;startSize=8;endSize=8;curved=1;" edge="1" source="_vopK-eWFFhWHjTZmwqj-31" parent="1">
          <mxGeometry width="50" height="50" relative="1" as="geometry">
            <mxPoint x="1300" y="1338.5" as="sourcePoint" />
            <mxPoint x="1350" y="1288.5" as="targetPoint" />
          </mxGeometry>
        </mxCell>
        <mxCell id="_vopK-eWFFhWHjTZmwqj-41" value="" style="sketch=0;outlineConnect=0;fontColor=#232F3E;gradientColor=none;fillColor=#8C4FFF;strokeColor=none;dashed=0;verticalLabelPosition=bottom;verticalAlign=top;align=center;html=1;fontSize=12;fontStyle=0;aspect=fixed;pointerEvents=1;shape=mxgraph.aws4.route_table;" vertex="1" parent="1">
          <mxGeometry x="1352" y="1497" width="78" height="76" as="geometry" />
        </mxCell>
        <mxCell id="_vopK-eWFFhWHjTZmwqj-42" value="" style="endArrow=classic;startArrow=classic;html=1;rounded=0;fontSize=12;startSize=8;endSize=8;curved=1;" edge="1" target="_vopK-eWFFhWHjTZmwqj-34" parent="1">
          <mxGeometry width="50" height="50" relative="1" as="geometry">
            <mxPoint x="708.5" y="1374.0214820592823" as="sourcePoint" />
            <mxPoint x="990" y="1525.97" as="targetPoint" />
          </mxGeometry>
        </mxCell>
        <mxCell id="_vopK-eWFFhWHjTZmwqj-43" value="" style="endArrow=classic;startArrow=classic;html=1;rounded=0;fontSize=12;startSize=8;endSize=8;curved=1;" edge="1" source="_vopK-eWFFhWHjTZmwqj-48" parent="1">
          <mxGeometry width="50" height="50" relative="1" as="geometry">
            <mxPoint x="719" y="1399" as="sourcePoint" />
            <mxPoint x="1000" y="1551" as="targetPoint" />
          </mxGeometry>
        </mxCell>
        <mxCell id="_vopK-eWFFhWHjTZmwqj-44" value="" style="endArrow=classic;startArrow=classic;html=1;rounded=0;fontSize=12;startSize=8;endSize=8;curved=1;" edge="1" target="_vopK-eWFFhWHjTZmwqj-33" parent="1">
          <mxGeometry width="50" height="50" relative="1" as="geometry">
            <mxPoint x="707.5" y="1358.0014820592824" as="sourcePoint" />
            <mxPoint x="990" y="1424.98" as="targetPoint" />
          </mxGeometry>
        </mxCell>
        <mxCell id="_vopK-eWFFhWHjTZmwqj-45" value="" style="endArrow=classic;startArrow=classic;html=1;rounded=0;fontSize=12;startSize=8;endSize=8;curved=1;" edge="1" target="_vopK-eWFFhWHjTZmwqj-32" parent="1">
          <mxGeometry width="50" height="50" relative="1" as="geometry">
            <mxPoint x="707.5" y="1338.5014820592824" as="sourcePoint" />
            <mxPoint x="992" y="1340.5" as="targetPoint" />
          </mxGeometry>
        </mxCell>
        <mxCell id="_vopK-eWFFhWHjTZmwqj-46" value="Auto-scaling enabled" style="text;html=1;align=center;verticalAlign=middle;whiteSpace=wrap;rounded=0;fontSize=16;" vertex="1" parent="1">
          <mxGeometry x="974.75" y="1591" width="112.5" height="30" as="geometry" />
        </mxCell>
        <mxCell id="_vopK-eWFFhWHjTZmwqj-47" value="Security group" style="fillColor=none;strokeColor=#DD3522;verticalAlign=top;fontStyle=0;fontColor=#DD3522;whiteSpace=wrap;html=1;" vertex="1" parent="1">
          <mxGeometry x="1326" y="1225" width="130" height="186" as="geometry" />
        </mxCell>
        <mxCell id="_vopK-eWFFhWHjTZmwqj-48" value="" style="sketch=0;points=[[0,0,0],[0.25,0,0],[0.5,0,0],[0.75,0,0],[1,0,0],[0,1,0],[0.25,1,0],[0.5,1,0],[0.75,1,0],[1,1,0],[0,0.25,0],[0,0.5,0],[0,0.75,0],[1,0.25,0],[1,0.5,0],[1,0.75,0]];outlineConnect=0;fontColor=#232F3E;fillColor=#C925D1;strokeColor=#ffffff;dashed=0;verticalLabelPosition=bottom;verticalAlign=top;align=center;html=1;fontSize=12;fontStyle=0;aspect=fixed;shape=mxgraph.aws4.resourceIcon;resIcon=mxgraph.aws4.rds;" vertex="1" parent="1">
          <mxGeometry x="622" y="1320" width="78" height="78" as="geometry" />
        </mxCell>
      </root>
    </mxGraphModel>
  </diagram>
</mxfile>
